<?xml version="1.0" encoding="iso-8859-1"?>
<!-- Generator: Adobe Illustrator 19.0.0, SVG Export Plug-In . SVG Version: 6.00 Build 0)  -->
<svg version="1.1" id="Capa_1" xmlns="http://www.w3.org/2000/svg" xmlns:xlink="http://www.w3.org/1999/xlink" x="0px" y="0px"
	 viewBox="0 0 60 60" style="enable-background:new 0 0 60 60;" xml:space="preserve">
<g>
	<g>
		<path d="M30,0C13.458,0,0,13.458,0,30s13.458,30,30,30s30-13.458,30-30S46.542,0,30,0z M30,58C14.561,58,2,45.439,2,30
			S14.561,2,30,2s28,12.561,28,28S45.439,58,30,58z"/>
		<path d="M55.011,30.041l-0.033-0.925c-0.024-0.677-0.074-1.347-0.15-2.009c-0.001-0.01-0.003-0.019-0.004-0.029
			c-0.15-1.284-0.399-2.538-0.737-3.756c-0.022-0.079-0.044-0.157-0.067-0.235c-0.173-0.6-0.363-1.193-0.579-1.773l-0.135-0.365
			l-0.011-0.005C49.659,11.624,40.591,5,30,5C19.349,5,10.237,11.698,6.642,21.102l-0.01,0.005L6.54,21.358
			c-0.015,0.041-0.03,0.082-0.045,0.123l0,0l0,0c-0.202,0.556-0.38,1.124-0.543,1.698C5.929,23.26,5.905,23.34,5.883,23.42
			C5.727,24,5.587,24.587,5.47,25.183c-0.004,0.019-0.006,0.037-0.01,0.056c-0.117,0.607-0.212,1.221-0.284,1.842
			c-0.002,0.017-0.005,0.034-0.007,0.051c-0.073,0.632-0.121,1.271-0.145,1.916c0,0.003-0.001,0.006-0.001,0.009l-0.037,0.987
			L5,30.045C5.02,41.21,12.396,50.68,22.53,53.859l-0.002,0.01l0.873,0.24c0.003,0.001,0.006,0.001,0.009,0.002
			c1.029,0.282,2.084,0.498,3.162,0.647c0.087,0.012,0.173,0.022,0.26,0.033c0.421,0.053,0.844,0.096,1.271,0.128
			c0.12,0.009,0.241,0.02,0.361,0.028C28.974,54.979,29.484,55,30,55c0.531,0,1.057-0.022,1.579-0.055
			c0.122-0.008,0.244-0.018,0.366-0.028c0.462-0.036,0.921-0.083,1.375-0.144c0.063-0.008,0.126-0.015,0.188-0.024
			c1.133-0.16,2.24-0.398,3.32-0.705c0.004-0.001,0.008-0.002,0.012-0.003l0.86-0.245l-0.002-0.014
			c10.016-3.25,17.282-12.659,17.3-23.74L55.011,30.041z M34.068,52.632c-0.387,0.07-0.776,0.128-1.166,0.178
			c-0.06,0.007-0.119,0.016-0.179,0.023c-0.38,0.045-0.762,0.08-1.144,0.106c-0.055,0.004-0.11,0.009-0.165,0.013
			c-1.323,0.081-2.652,0.05-3.97-0.098c-0.005-0.001-0.011-0.001-0.016-0.002c-0.428-0.048-0.854-0.109-1.279-0.181
			c-0.034-0.006-0.067-0.012-0.101-0.018c-0.405-0.071-0.808-0.152-1.21-0.245c-0.015-0.004-0.031-0.007-0.046-0.011
			c0.246-1.82,0.42-4.508-0.008-7.398h10.678c-0.425,2.87-0.258,5.537-0.017,7.342c-0.422,0.103-0.846,0.193-1.272,0.272
			C34.138,52.62,34.103,52.626,34.068,52.632z M35.86,43H24.387c-0.623-2.504-1.765-5.045-3.777-7.22
			c-2.104-2.275-4.18-3.894-6.144-5.048l8.84-11.492c2.049-0.152,4.307-0.244,6.816-0.244c2.399,0,4.569,0.082,6.552,0.22
			l8.969,11.659c-1.923,1.129-3.97,2.7-6.009,4.904C37.624,37.954,36.483,40.497,35.86,43z M7.083,28.125
			c0.037-0.463,0.087-0.923,0.152-1.38c0-0.003,0.001-0.007,0.001-0.01c0.131-0.923,0.32-1.833,0.562-2.729
			c0.023-0.085,0.048-0.17,0.073-0.255c0.098-0.347,0.204-0.692,0.319-1.034c0.02-0.059,0.04-0.118,0.06-0.177
			c2.081-0.985,5.946-2.332,12.342-3.047l-7.919,10.295c-2.078-0.967-3.983-1.429-5.593-1.61C7.08,28.16,7.081,28.142,7.083,28.125z
			 M47.437,29.927l-8.06-10.477c6.008,0.638,9.898,1.847,12.328,2.953c0.016,0.045,0.031,0.091,0.046,0.136
			c0.131,0.382,0.252,0.767,0.363,1.155c0.021,0.075,0.044,0.15,0.064,0.226c0.382,1.396,0.633,2.829,0.745,4.287
			c0.001,0.01,0.002,0.02,0.002,0.03C51.472,28.449,49.568,28.924,47.437,29.927z M30,7c9.022,0,16.843,5.224,20.609,12.804
			c-3.979-1.439-10.409-2.807-20.486-2.807c-10.299,0-16.798,1.419-20.787,2.916C13.08,12.273,20.934,7,30,7z M7.005,30.186
			c3.149,0.386,7.536,1.977,12.138,6.952c4.251,4.596,4.143,11.19,3.702,14.717C13.712,48.857,7.086,40.289,7.005,30.186z
			 M37.391,51.775c-0.429-3.518-0.513-10.069,3.712-14.637c4.545-4.913,9.081-6.439,11.891-6.886
			C52.886,40.239,46.382,48.715,37.391,51.775z"/>
	</g>
</g>
<g>
</g>
<g>
</g>
<g>
</g>
<g>
</g>
<g>
</g>
<g>
</g>
<g>
</g>
<g>
</g>
<g>
</g>
<g>
</g>
<g>
</g>
<g>
</g>
<g>
</g>
<g>
</g>
<g>
</g>
</svg>
